<svg xmlns="http://www.w3.org/2000/svg" viewBox="0 0 400 300" width="406" height="306" class="illustration"><g id="_103_resting" data-name="#103_resting"><path d="M355.49,208.14H57.32a.5.5,0,1,1,0-1H355.49a.5.5,0,0,1,0,1Z" fill="#d1d3d4"></path><path d="M90.2,233.06a1.51,1.51,0,0,1-1.5-1.5V183.74a1.5,1.5,0,0,1,3,0v47.82A1.5,1.5,0,0,1,90.2,233.06Z" fill="#231f20"></path><path d="M287.5,189.4a42.51,42.51,0,0,1-4.15,19c-8.28,17.31-27.75,28-46.92,32.48-16.05,3.74-32.72,3.89-49.2,3.2-17.5-.73-35.75-2.65-50.5-12.09a72.83,72.83,0,0,1-29.49-38.27c-6-18.76-7.86-38.57-8.72-58.24a107.35,107.35,0,0,1,.08-14,49.1,49.1,0,0,1,.78-5.38,42.19,42.19,0,0,1,11-20.67,50.55,50.55,0,0,1,4-3.74c16.29-13.55,41.76-16.93,59.87-4.91,12.72,8.42,25.59,14.52,34.43,27.66,2.68,4,4.92,8.24,7.58,12.22a66.46,66.46,0,0,0,31.81,24.82A54.66,54.66,0,0,0,258.13,154c9.29,1.56,18.15,2.28,23.75,11.89,3.78,6.47,5.17,14.08,5.55,21.56,0,.51.05,1,.06,1.49C287.49,189.09,287.5,189.24,287.5,189.4Z" fill="#fff"></path><path d="M148.74,79.4a45.81,45.81,0,0,1,25.5,7.39c12.72,8.42,25.59,14.52,34.43,27.66,2.68,4,4.92,8.24,7.58,12.22a66.46,66.46,0,0,0,31.81,24.82A54.66,54.66,0,0,0,258.13,154c9.28,1.56,18.15,2.28,23.75,11.89,3.78,6.47,5.17,14.08,5.55,21.56,0,.51.05,1,.06,1.49,0,.17,0,.32,0,.48a42.51,42.51,0,0,1-4.15,19c-8.28,17.31-27.75,28-46.92,32.48-11.52,2.69-23.37,3.52-35.23,3.52-4.66,0-9.32-.13-14-.32-17.5-.73-35.75-2.65-50.5-12.09a72.83,72.83,0,0,1-29.49-38.27c-6-18.76-7.86-38.57-8.72-58.24a107.35,107.35,0,0,1,.08-14,49.1,49.1,0,0,1,.78-5.38,42.19,42.19,0,0,1,11-20.67,50.55,50.55,0,0,1,4-3.74,54.51,54.51,0,0,1,34.37-12.3m0-1a55.58,55.58,0,0,0-35,12.53,50,50,0,0,0-4.08,3.82A43.33,43.33,0,0,0,98.4,115.91a49.59,49.59,0,0,0-.79,5.49,105.79,105.79,0,0,0-.09,14.14c.78,17.75,2.42,38.57,8.77,58.5a74.27,74.27,0,0,0,29.9,38.81c14.86,9.51,33.29,11.51,51,12.25,5.19.22,9.77.32,14,.32,13.81,0,25.07-1.13,35.46-3.55,22.74-5.3,40.09-17.34,47.59-33a43.55,43.55,0,0,0,4.25-19.46v-.26a1.48,1.48,0,0,1,0-.21q0-.73-.06-1.47v-.07c-.46-9.06-2.32-16.26-5.69-22-5.4-9.29-13.63-10.62-22.33-12L258.3,153a54.24,54.24,0,0,1-9.89-2.44,65.5,65.5,0,0,1-31.33-24.44c-1.3-1.94-2.53-4-3.72-6s-2.49-4.19-3.86-6.22c-7.18-10.66-16.83-16.68-27.05-23.06-2.51-1.57-5.11-3.19-7.66-4.88a46.85,46.85,0,0,0-26-7.55Z" fill="#231f20"></path><path d="M209.43,137.85l-.11,0a.49.49,0,0,1-.37-.6c.91-3.89,5.92-6.12,6.13-6.21a.5.5,0,1,1,.4.91s-4.76,2.12-5.56,5.53A.51.51,0,0,1,209.43,137.85Z" fill="#d1d3d4"></path><path d="M177.35,197.78a.44.44,0,0,1-.22-.05.5.5,0,0,1-.22-.67c3.41-6.74,9.28-12.29,12.8-15.23-1.45.52-3.11,1.07-4.89,1.65-7.54,2.47-16.91,5.53-18.25,9.88a.5.5,0,0,1-.63.32.5.5,0,0,1-.33-.62c1.5-4.83,11.15-8,18.9-10.53a65.56,65.56,0,0,0,8.18-3,.49.49,0,0,1,.65.19.48.48,0,0,1-.14.66c-.1.07-10.45,7.33-15.4,17.14A.5.5,0,0,1,177.35,197.78Z" fill="#d1d3d4"></path><path d="M242.28,191.78a.49.49,0,0,1-.44-.27.5.5,0,0,1,.22-.67c7.06-3.5,15.35-6.8,23.32-4.74a3.35,3.35,0,0,1,2.19,1.35.5.5,0,1,1-.86.5,2.51,2.51,0,0,0-1.58-.88c-7.65-2-15.73,1.25-22.63,4.66A.42.42,0,0,1,242.28,191.78Z" fill="#d1d3d4"></path><path d="M166.72,156.23a.59.59,0,0,1-.22,0,.51.51,0,0,1-.27-.41c-.65-1-8.17-7-18.2-9.79-9.41-2.67-17.68-1.75-24.59,2.71a.49.49,0,0,1-.69-.14.5.5,0,0,1,.15-.69c17.32-11.2,38.89,2.47,43.31,6.46.92.83,1.16,1.24,1,1.64A.51.51,0,0,1,166.72,156.23Z" fill="#d1d3d4"></path><path d="M143.83,189.12a.49.49,0,0,1-.36-.84c19.47-20.59,33-14.66,33.54-14.4a.5.5,0,0,1-.42.91c-.13-.06-13.46-5.84-32.4,14.18A.49.49,0,0,1,143.83,189.12Z" fill="#d1d3d4"></path><path d="M260.78,131.26l5.44-11.37s37.79,13.4,42.85,18.76,5.77,8.91,12,8.71h.09c3-.43,5.95-3.14,8.23-5a131.41,131.41,0,0,0,11.77-10.86,102.59,102.59,0,0,0,10.12-11.73c1.13-1.58,2.94-3.77,3.18-5.73.3-2.45-1.9-6.07-4-7.21-5.22-2.91-14,5.41-18,8-2.31,1.48-6.21,5.18-8.9,5.23-1.54,0-3.76-1.33-5.16-1.87-7.23-2.81-14.41-5.8-21.61-8.71-8.57-3.47-17.15-6.94-25.83-10.14-3.18-1.17-6.37-2.35-9.62-3.3-1.33-.39-3.48-1.34-4.9-.93-4.57,1.34-19.05,24.74-19.05,24.74" fill="#fff"></path><path d="M320.57,147.86c-4.52,0-6.21-2.09-8.73-5.21-.88-1.09-1.87-2.32-3.13-3.65-4.64-4.92-38.07-17-42.24-18.49l-5.24,11a.5.5,0,1,1-.9-.43l5.44-11.37a.5.5,0,0,1,.61-.26c1.55.55,38,13.51,43.06,18.9,1.28,1.37,2.29,2.61,3.18,3.71,2.59,3.21,4,5,8.41,4.84,2.53-.36,5.05-2.44,7.09-4.11l.93-.76a131.07,131.07,0,0,0,11.73-10.82,102,102,0,0,0,10.07-11.67l.52-.72c1.06-1.44,2.38-3.23,2.57-4.79.28-2.24-1.85-5.68-3.7-6.71-3.87-2.15-10.26,2.65-14.48,5.83-1.17.88-2.18,1.64-3,2.18-.6.39-1.34.95-2.12,1.54-2.3,1.75-4.91,3.73-7.05,3.77a10.23,10.23,0,0,1-4-1.31c-.48-.23-.93-.44-1.32-.59-5.09-2-10.24-4.08-15.21-6.11l-6.4-2.61c-8.38-3.39-17.05-6.9-25.83-10.13-2.94-1.09-6.28-2.32-9.58-3.29l-.91-.3c-1.21-.41-2.72-.92-3.71-.63-3.6,1.06-14.77,18.06-18.77,24.52a.49.49,0,0,1-.68.16.5.5,0,0,1-.17-.69c.6-1,14.64-23.57,19.34-25,1.29-.37,3,.19,4.31.65l.87.28c3.33,1,6.69,2.22,9.65,3.31,8.79,3.24,17.46,6.75,25.85,10.15l6.4,2.6c5,2,10.12,4.13,15.21,6.11.4.15.87.38,1.38.62a10.2,10.2,0,0,0,3.54,1.21h0c1.81,0,4.39-2,6.46-3.57.79-.6,1.54-1.17,2.18-1.58.81-.52,1.81-1.27,3-2.14,4.69-3.54,11.13-8.37,15.57-5.9,2.17,1.21,4.54,5,4.2,7.71-.22,1.81-1.62,3.72-2.75,5.26-.18.24-.35.47-.51.7a103.52,103.52,0,0,1-10.17,11.79,132.89,132.89,0,0,1-11.82,10.9l-.93.75c-2.13,1.76-4.77,3.94-7.54,4.33h-.64Z" fill="#231f20"></path><path d="M161.67,101.88l-12.07,1.64L131.32,89.41l8.49-3.81-4.24-10.71s-30.1-7.14-35.14.31c-13.27,19.63,16.86,30.93,37.1,52.14,0,0,18.09,32.31,42,53.85,0,0,21.63-15,36-34.27L200.4,107.76s11.6-46.24,6.2-51.13-40.73,9.91-40.73,9.91l6.73,8.66,13.23-.31L183.54,87.6S167.86,93.73,161.67,101.88Z" fill="#FF6347"></path><path d="M133.75,70.45a5.46,5.46,0,0,1,6.05-1,5.08,5.08,0,0,1-.21-5.14,12.86,12.86,0,0,1,3.52-4,20.68,20.68,0,0,1,6.37-4c6.17-2.17,13,.74,18.21,4.72,2.77,2.12,6.09,5.4,6.25,9.14.14,3.47-3.11,8.26-4.83,11.2-2.46,4.19-5.55,8.15-9.67,10.73-10.92,6.83-24,0-27.5-11.72-.83-2.75-1-5.89.48-8.37A6.24,6.24,0,0,1,133.75,70.45Z" fill="#fff"></path><path d="M150.2,95.34a17.65,17.65,0,0,1-6.3-1.18,20.9,20.9,0,0,1-12.44-13.62c-1-3.36-.82-6.47.53-8.78a6.57,6.57,0,0,1,1.44-1.69h0a6.3,6.3,0,0,1,5.34-1.5,5.91,5.91,0,0,1,.37-4.43,13.11,13.11,0,0,1,3.65-4.22,21.39,21.39,0,0,1,6.53-4.08c5.41-1.9,12.22-.15,18.67,4.8,2.85,2.19,6.28,5.61,6.45,9.52.13,3.14-2.33,7.21-4.13,10.18-.28.46-.54.89-.77,1.29-3,5.06-6.19,8.63-9.83,10.91A17.94,17.94,0,0,1,150.2,95.34ZM134.07,70.83a5.69,5.69,0,0,0-1.21,1.44c-1.64,2.78-1,6.19-.44,8a19.91,19.91,0,0,0,11.83,13,16.59,16.59,0,0,0,14.93-1.54c3.5-2.19,6.61-5.65,9.49-10.57.24-.4.5-.84.79-1.3,1.73-2.86,4.1-6.78,4-9.61-.15-3.53-3.38-6.72-6.05-8.77-2.93-2.25-10.51-7.19-17.74-4.65a20.35,20.35,0,0,0-6.22,3.89A12.42,12.42,0,0,0,140,64.57a4.55,4.55,0,0,0,.16,4.62.5.5,0,0,1-.64.74,5,5,0,0,0-5.49.9Z" fill="#231f20"></path><path d="M174.26,95.69l5.22,8.27s1.16,6.56-7.73,8.6-12.83-3.92-12.83-3.92L147.61,91.93s4.32-6.07-3.78-18a43.89,43.89,0,0,0,22-7.41s10.51,12,12.61,18.68S174.26,95.69,174.26,95.69Z" fill="#fff"></path><path d="M168.2,113.48a11.93,11.93,0,0,1-9.7-4.56L147.2,92.21a.5.5,0,0,1,0-.57c0-.06,4-6-3.78-17.41a.49.49,0,0,1,0-.52.51.51,0,0,1,.44-.26,43.75,43.75,0,0,0,21.76-7.33.51.51,0,0,1,.66.09c.43.5,10.59,12.21,12.71,18.85,1.87,5.88-2.6,9.72-4,10.77l5,7.87a.75.75,0,0,1,.07.18c0,.07,1.13,7-8.12,9.16A16,16,0,0,1,168.2,113.48Zm-20-21.57,11.13,16.45c.16.24,3.89,5.64,12.31,3.71,7.83-1.8,7.46-7.13,7.36-7.93L173.83,96a.51.51,0,0,1-.06-.38.5.5,0,0,1,.23-.32c.24-.15,6-3.73,4-9.89-1.86-5.84-10.54-16.19-12.23-18.17a45.63,45.63,0,0,1-21,7.21C151.42,84.68,149,90.54,148.2,91.91Z" fill="#231f20"></path><path d="M154.58,95.33a7.07,7.07,0,0,1-4.79,2.52,7.62,7.62,0,0,1-6.68-3.27A6.5,6.5,0,0,1,141.85,92a3.4,3.4,0,0,1,.56-2.74,5.49,5.49,0,0,1,3.05-1.53c1.67-.43,2.26.22,3.78.61-.15,0-.43-.23-.58-.25" fill="#fff"></path><path d="M149.2,98.37a8.18,8.18,0,0,1-6.48-3.49,6.84,6.84,0,0,1-1.36-2.77A3.91,3.91,0,0,1,142,89a5.85,5.85,0,0,1,3.32-1.7,4.25,4.25,0,0,1,2.93.25l.28.1a.61.61,0,0,1,.19,0,1.25,1.25,0,0,1,.45.18l.14.07h0a.5.5,0,0,1-.2,1l-.12,0a11.32,11.32,0,0,1-1.12-.37,3.26,3.26,0,0,0-2.34-.22,4.87,4.87,0,0,0-2.77,1.35,2.88,2.88,0,0,0-.47,2.33,5.83,5.83,0,0,0,1.17,2.36,7.11,7.11,0,0,0,6.24,3.08A6.63,6.63,0,0,0,154.2,95a.49.49,0,0,1,.7-.06.49.49,0,0,1,.07.7,7.57,7.57,0,0,1-5.14,2.7C149.62,98.37,149.41,98.37,149.2,98.37Z" fill="#231f20"></path><path d="M178.69,102.71a12.73,12.73,0,0,1-8.79.11c-5.17-1.62-6.31-4.58-6.31-4.58s6,1.09,10.67-2.55Z" fill="#231f20"></path><path d="M174.31,104a15.08,15.08,0,0,1-4.56-.72c-5.34-1.68-6.58-4.76-6.63-4.89a.49.49,0,0,1,.09-.49.47.47,0,0,1,.47-.17c.06,0,5.83,1,10.27-2.45a.5.5,0,0,1,.39-.1.53.53,0,0,1,.34.22l4.43,7a.48.48,0,0,1,.06.4.55.55,0,0,1-.26.32A11.4,11.4,0,0,1,174.31,104Zm-9.77-5.17a10.65,10.65,0,0,0,5.51,3.5,12.92,12.92,0,0,0,7.89.11l-3.82-6A15,15,0,0,1,164.54,98.85Z" fill="#231f20"></path><path d="M161.67,77.78s7.39,3.88,7,5.46-3.49,2.36-3.49,2.36" fill="#fff"></path><path d="M165.18,86.1a.5.5,0,0,1-.49-.38.5.5,0,0,1,.36-.6c.73-.19,2.87-1,3.13-2,.14-.64-3.08-3-6.74-4.89a.5.5,0,0,1-.21-.68.5.5,0,0,1,.67-.21c2.33,1.22,7.69,4.25,7.25,6s-3.5,2.64-3.85,2.73Z" fill="#231f20"></path><ellipse cx="156.52" cy="80.02" rx="1.15" ry="1.62" transform="translate(-18.96 69.52) rotate(-23.65)" fill="#231f20"></ellipse><ellipse cx="166.09" cy="74.89" rx="1.15" ry="1.62" transform="translate(-8.59 126.68) rotate(-40.79)" fill="#231f20"></ellipse><path d="M169.6,93.9a7,7,0,0,1-3.09-.73,10.17,10.17,0,0,1-3.63-3.12h0a.51.51,0,0,1-.08-.4c.06-.29.09-.4,9.26-5.53a.5.5,0,0,1,.63.12c.11.13,2.67,3.3,2,6.33a4.28,4.28,0,0,1-2.42,2.75A6.08,6.08,0,0,1,169.6,93.9Zm-5.6-4a9,9,0,0,0,2.94,2.41,5.62,5.62,0,0,0,4.88.14,3.28,3.28,0,0,0,1.88-2c.45-2.07-.95-4.33-1.55-5.16C169.33,86.78,165.28,89.07,164,89.86Z" fill="#231f20"></path><path d="M166.72,92.72c3.57,1.73,7-.13,7.47-2.25a4.76,4.76,0,0,0-4.11-.87A6.68,6.68,0,0,0,166.72,92.72Z" fill="#231f20"></path><path d="M169.6,93.9a7,7,0,0,1-3.09-.73.5.5,0,0,1-.22-.69,7.29,7.29,0,0,1,3.62-3.35c1.3-.49,2.83-.18,4.55.92a.5.5,0,0,1,.21.53,4.25,4.25,0,0,1-2.41,2.73A6.08,6.08,0,0,1,169.6,93.9Zm-2.16-1.41a5.46,5.46,0,0,0,4.38-.08,3.52,3.52,0,0,0,1.78-1.72,4,4,0,0,0-3.35-.63A6,6,0,0,0,167.44,92.49Z" fill="#231f20"></path><path d="M215.52,146.92S234.67,113.63,236,113,266.22,131,266.22,131l-19.37,41.12S212,165,215.52,146.92Z" fill="#231f20"></path><path d="M246.85,172.66h-.1a82.6,82.6,0,0,1-17.08-5.89c-11-5.41-16.1-12.31-14.63-19.93a.75.75,0,0,1,.05-.16c4.51-7.84,19.33-33.47,20.66-34.13s17.43,9.47,30.74,18.08a.5.5,0,0,1,.18.63L247.3,172.37A.49.49,0,0,1,246.85,172.66ZM216,147.1c-3,16.3,26.82,23.64,30.57,24.49l19-40.37c-10.56-6.82-27.4-17.36-29.43-17.75C234.76,114.86,223.41,134.21,216,147.1Z" fill="#231f20"></path><path d="M250.44,147.25s43.08-18.12,49-12.81,12.37,84.44,14,85.18c7.05,3.19,19.36,8.07,19.82,8.09,2.31.09,13.18.88,9.07,5.45-3.36,3.74-8.09,2.48-12.56,2.72-5.93.32-7.23.52-13.16.68q-8.11.21-16.22.31a7.07,7.07,0,0,1-6.85-5.06l-14.47-66.09-18.69,9.19Z" fill="#fff"></path><path d="M300.29,237.37A7.6,7.6,0,0,1,293,232l-14.34-65.5-18.12,8.91a.47.47,0,0,1-.4,0,.48.48,0,0,1-.29-.3L250,147.42a.51.51,0,0,1,.28-.63c1.77-.75,43.44-18.18,49.48-12.73,3.64,3.29,7.21,31.23,10.86,62.07,1.33,11.21,2.59,21.82,3.15,23.09,7,3.15,18.77,7.82,19.57,8,2.08.08,9.12.58,10.26,3.28.39.91.09,1.92-.88,3-2.74,3-6.35,3-9.84,2.89-1,0-2.06,0-3.08,0-2,.11-3.52.21-4.84.29-2.57.17-4.42.28-8.33.39-5.53.14-11,.25-16.22.31Zm-21.24-72.15a.47.47,0,0,1,.49.39L294,231.7a6.59,6.59,0,0,0,6.29,4.67h.07c5.24-.06,10.69-.17,16.22-.31,3.88-.1,5.73-.22,8.29-.39,1.32-.08,2.81-.18,4.85-.28,1-.06,2.12,0,3.16,0,3.41.08,6.63.15,9.06-2.56.69-.77.93-1.42.71-1.94-.67-1.6-5.36-2.51-9.43-2.67-.67,0-13.71-5.28-20-8.13-.73-.33-1.21-3.45-3.62-23.84-2.74-23.15-6.88-58.13-10.54-61.43-4.57-4.13-35.76,7.61-48,12.71l9.57,26.7,18.18-8.95A.42.42,0,0,1,279.05,165.22Z" fill="#231f20"></path><path d="M179.53,181.19s18.49,22.52,38.78,22.52S269,175.23,269,175.23l-16-34.62-37.43,6.31S183.57,173,179.53,181.19Z" fill="#231f20"></path><path d="M218.31,204.2c-10.62,0-20.71-6.18-27.3-11.36a84.34,84.34,0,0,1-11.86-11.34.47.47,0,0,1-.06-.53c4-8.16,34.81-33.37,36.12-34.43a.45.45,0,0,1,.23-.11l37.42-6.31a.5.5,0,0,1,.54.28l16,34.62a.49.49,0,0,1-.11.58,183.27,183.27,0,0,1-17.79,14.28C238,199.38,226.82,204.2,218.31,204.2Zm-38.18-23.08c2.1,2.46,19.51,22.09,38.18,22.09,18.86,0,47.05-25.32,50.08-28.1l-15.74-33.94-36.91,6.22C213.77,149,184.53,173.08,180.13,181.12Z" fill="#231f20"></path><path d="M210.83,156.23a.5.5,0,0,1-.18-1c18.38-7.48,41.91-15.06,42.14-15.13a.49.49,0,0,1,.63.32.51.51,0,0,1-.32.63c-.24.07-23.73,7.64-42.08,15.1A.41.41,0,0,1,210.83,156.23Z" fill="#fff"></path><path d="M340.36,113s-20.89,14.87-25.46,25" fill="#fff"></path><path d="M314.9,138.45a.54.54,0,0,1-.21,0,.5.5,0,0,1-.25-.66c4.58-10.12,24.77-24.57,25.63-25.18a.5.5,0,0,1,.69.11.51.51,0,0,1-.11.7c-.21.15-20.83,14.9-25.29,24.78A.51.51,0,0,1,314.9,138.45Z" fill="#231f20"></path><path d="M152.63,108.26a.48.48,0,0,1-.4-.21c-8.56-11.84-29.09-23-29.3-23.06a.5.5,0,0,1,.47-.88c.21.11,20.95,11.33,29.64,23.36a.49.49,0,0,1-.12.69A.46.46,0,0,1,152.63,108.26Z" fill="#231f20"></path><path d="M185.83,75.39h-.09a.51.51,0,0,1-.41-.58,16.22,16.22,0,0,1,4.18-8.63.5.5,0,1,1,.68.73A15.5,15.5,0,0,0,186.32,75,.51.51,0,0,1,185.83,75.39Z" fill="#231f20"></path><ellipse cx="90.2" cy="183.74" rx="45.69" ry="12.56" fill="#fff"></ellipse><path d="M90.2,196.8C64.3,196.8,44,191.06,44,183.74S64.3,170.67,90.2,170.67s46.19,5.74,46.19,13.07S116.1,196.8,90.2,196.8Zm0-25.13C65.71,171.67,45,177.2,45,183.74S65.71,195.8,90.2,195.8s45.19-5.53,45.19-12.06S114.7,171.67,90.2,171.67Z" fill="#231f20"></path><path d="M107.75,243.69a1.5,1.5,0,0,1-1.5-1.5c0-3.16-9.43-7.22-16-9.08-6.61,1.86-16,5.92-16,9.08a1.5,1.5,0,0,1-3,0c0-6.68,15.54-11.24,18.65-12.08a1.51,1.51,0,0,1,.79,0c3.11.84,18.65,5.4,18.65,12.08A1.5,1.5,0,0,1,107.75,243.69Z" fill="#231f20"></path><circle cx="64.24" cy="147.03" r="6.92" fill="#fff"></circle><path d="M64.24,154.47A7.44,7.44,0,1,1,71.68,147,7.45,7.45,0,0,1,64.24,154.47Zm0-13.85A6.41,6.41,0,1,0,70.65,147,6.41,6.41,0,0,0,64.24,140.62Z" fill="#231f20"></path><polygon points="66.25 183.61 84.45 183.61 86.63 147.38 64.06 147.38 66.25 183.61" fill="#fff"></polygon><path d="M84.45,184.13H66.25a.52.52,0,0,1-.52-.49l-2.18-36.23a.51.51,0,0,1,.51-.55H86.63A.51.51,0,0,1,87,147a.52.52,0,0,1,.14.39L85,183.64A.51.51,0,0,1,84.45,184.13Zm-17.72-1H84l2.12-35.21H64.61Z" fill="#231f20"></path><polygon points="68.89 180.78 81.8 180.78 82.89 161.71 67.81 161.71 68.89 180.78" fill="#FF6347"></polygon><path d="M78.92,179.85a.56.56,0,0,1-.52-.41c-.17-.71,2-30.61,3-43.44a.51.51,0,0,1,.17-.34l9.06-8.19a.52.52,0,0,1,.7.77l-8.91,8c-.87,11.75-3.06,41.79-3,43a.49.49,0,0,1-.38.6Z" fill="#231f20"></path><polygon points="86.63 186.11 85.98 191.16 115.95 192.15 126.32 176.04 126.07 169.79 86.63 186.11" fill="#fff"></polygon><path d="M116,192.65h0l-30-1a.51.51,0,0,1-.37-.18.47.47,0,0,1-.11-.38l.64-5a.51.51,0,0,1,.31-.4l39.44-16.32a.5.5,0,0,1,.46,0,.51.51,0,0,1,.23.4l.25,6.25a.43.43,0,0,1-.08.29l-10.37,16.11A.52.52,0,0,1,116,192.65Zm-29.4-2,29.13,1,10.14-15.74-.22-5.37L87.09,186.46Z" fill="#231f20"></path><polygon points="98.87 168.46 86.63 186.11 115.33 186.96 126.07 169.79 98.87 168.46" fill="#fff"></polygon><path d="M115.33,187.46h0l-28.7-.85a.52.52,0,0,1-.43-.27.49.49,0,0,1,0-.51l12.24-17.65a.51.51,0,0,1,.43-.22l27.2,1.33a.5.5,0,0,1,.4.77l-10.74,17.16A.49.49,0,0,1,115.33,187.46Zm-27.76-1.82,27.49.81,10.13-16.2L99.12,169Z" fill="#231f20"></path><line x1="115.33" y1="186.96" x2="115.95" y2="192.15" fill="#fff"></line><path d="M116,192.65a.51.51,0,0,1-.5-.44l-.62-5.19a.51.51,0,0,1,.44-.56.52.52,0,0,1,.56.44l.61,5.19a.5.5,0,0,1-.44.56Z" fill="#231f20"></path><path d="M116.4,177.12h0l-17.93-.77a.52.52,0,0,1-.43-.28.5.5,0,0,1,0-.5l3-4.36a.5.5,0,0,1,.43-.21l17.78.87a.5.5,0,0,1,.42.28.5.5,0,0,1,0,.5l-2.85,4.25A.49.49,0,0,1,116.4,177.12Zm-17-1.73,16.75.72,2.21-3.29L101.72,172Z" fill="#d1d3d4"></path></g></svg>