<?xml version="1.0" standalone="no"?><svg xmlns="http://www.w3.org/2000/svg" viewBox="0 0 1440 320"><path fill="#FF6347" fill-opacity="0.7" d="M0,224L30,202.7C60,181,120,139,180,106.7C240,75,300,53,360,74.7C420,96,480,160,540,176C600,192,660,160,720,133.3C780,107,840,85,900,106.7C960,128,1020,192,1080,186.7C1140,181,1200,107,1260,112C1320,117,1380,203,1410,245.3L1440,288L1440,320L1410,320C1380,320,1320,320,1260,320C1200,320,1140,320,1080,320C1020,320,960,320,900,320C840,320,780,320,720,320C660,320,600,320,540,320C480,320,420,320,360,320C300,320,240,320,180,320C120,320,60,320,30,320L0,320Z"></path></svg>